<?xml version="1.0" standalone="no"?>
<!DOCTYPE svg PUBLIC "-//W3C//DTD SVG 20010904//EN"
 "http://www.w3.org/TR/2001/REC-SVG-20010904/DTD/svg10.dtd">
<svg version="1.0" xmlns="http://www.w3.org/2000/svg"
 width="300.000000pt" height="272.000000pt" viewBox="0 0 300.000000 272.000000"
 preserveAspectRatio="xMidYMid meet">
<metadata>
Created by potrace 1.10, written by Peter Selinger 2001-2011
</metadata>
<g transform="translate(0.000000,272.000000) scale(0.100000,-0.100000)"
fill="#000000" stroke="none">
<path d="M1290 2394 c-64 -28 -80 -51 -80 -115 0 -32 4 -61 10 -64 12 -7 50
-134 50 -168 0 -22 -10 -31 -63 -57 -35 -17 -80 -44 -99 -60 l-35 -29 -6 -133
c-4 -73 -11 -171 -18 -218 -6 -47 -12 -168 -14 -270 -3 -163 -2 -190 15 -227
18 -42 52 -62 83 -50 21 8 30 167 12 211 -13 31 -12 40 12 107 17 48 28 106
32 166 3 50 10 95 14 100 10 9 2 -193 -12 -302 -22 -171 -12 -467 20 -605 19
-81 30 -160 43 -317 l6 -73 -62 -46 c-35 -25 -69 -53 -75 -62 -17 -22 -16 -67
2 -82 30 -25 264 13 293 48 15 19 16 71 2 108 -7 19 -7 30 1 40 6 8 8 22 4 31
-20 50 -44 500 -26 489 6 -4 11 -23 11 -41 0 -19 6 -54 14 -77 9 -27 17 -121
22 -248 11 -266 10 -283 -12 -357 -24 -81 -17 -88 81 -88 103 0 111 9 95 103
-10 56 -10 83 -1 129 19 91 18 236 -3 338 -13 66 -16 113 -12 175 23 336 24
376 15 385 -15 15 -11 121 6 135 8 7 29 39 46 70 17 32 53 84 81 116 77 91 82
104 69 189 -16 109 -81 276 -129 331 -10 12 -45 29 -77 39 -77 22 -131 50
-139 71 -4 9 1 28 10 41 8 14 26 53 39 88 20 53 22 68 13 99 -15 48 -35 64
-99 82 -68 17 -95 17 -139 -2z m83 -10 c11 -12 -4 -32 -22 -27 -12 3 -22 -6
-34 -32 -9 -20 -17 -42 -17 -50 0 -17 -16 -20 -25 -5 -4 6 -11 7 -17 4 -6 -4
-9 -1 -6 7 3 8 1 25 -4 39 -5 13 -6 22 -3 18 4 -3 18 3 32 15 32 28 82 45 96
31z m37 -15 c0 -6 6 -9 13 -6 13 5 67 -21 79 -38 4 -5 7 -21 7 -35 l-1 -25 -8
25 -8 25 -1 -24 c-1 -24 -1 -24 -17 -5 -15 18 -15 18 -9 -3 4 -14 2 -23 -5
-23 -6 0 -10 15 -8 35 1 19 6 35 11 35 4 0 5 5 2 10 -11 17 -24 11 -20 -10 2
-11 -1 -20 -7 -20 -5 0 -8 7 -5 14 8 19 -29 31 -48 16 -12 -10 -12 -7 -2 14
12 26 27 35 27 15z m-56 -40 c-4 -8 3 -9 23 -5 27 6 31 3 55 -44 14 -27 22
-52 18 -55 -5 -3 -12 0 -15 6 -4 5 -23 10 -44 9 -67 -3 -78 -1 -76 18 3 29 17
67 29 74 15 11 18 10 10 -3z m126 -129 c-7 -4 -10 -12 -6 -18 3 -6 2 -13 -4
-17 -14 -9 -12 39 2 53 9 9 14 10 17 1 2 -6 -2 -15 -9 -19z m-112 -2 c-2 -13
-9 -23 -17 -23 -8 0 -16 -6 -18 -12 -6 -17 2 -16 40 1 57 25 77 26 77 5 0 -10
-6 -19 -12 -20 -10 0 -10 -2 -1 -6 31 -12 -35 -68 -94 -79 -11 -2 -45 40 -49
61 -1 6 -5 23 -9 39 -7 26 -6 28 10 22 24 -9 55 2 55 20 0 8 5 14 11 14 6 0 9
-10 7 -22z m92 -160 c0 -29 -45 -68 -77 -68 -34 0 -58 14 -49 28 3 5 -1 12 -9
16 -23 9 -18 26 8 22 13 -2 22 -10 23 -22 2 -38 4 -39 24 -9 24 35 27 57 4 29
-14 -18 -15 -18 -4 4 6 12 15 20 20 17 5 -3 14 4 21 17 11 21 12 21 25 3 8
-10 14 -27 14 -37z m58 -17 c20 -10 54 -21 75 -25 34 -6 40 -13 71 -75 19 -37
42 -73 51 -81 9 -7 20 -20 25 -29 7 -14 2 -15 -35 -13 -59 5 -84 -10 -77 -45
l6 -28 6 25 c4 18 15 26 40 32 51 10 79 0 86 -31 2 -14 9 -42 14 -62 25 -95 6
-154 -82 -250 -31 -34 -35 -36 -62 -24 -18 8 -24 15 -17 19 16 10 42 76 34 89
-3 6 -1 7 5 3 7 -4 12 -1 12 7 0 8 7 20 15 27 9 7 13 15 10 18 -3 3 -1 10 5
17 6 7 4 27 -4 55 -7 25 -16 39 -20 32 -4 -7 -4 -17 0 -24 5 -7 3 -8 -5 -3 -8
4 -10 18 -7 34 l6 26 -14 -25 -14 -24 -11 39 c-6 22 -11 47 -12 55 -1 8 -5 4
-9 -10 -7 -22 -8 -23 -9 -4 -1 12 6 41 14 64 17 47 14 60 -10 40 -12 -10 -15
-10 -16 1 0 8 -4 3 -10 -9 -5 -14 -5 -30 0 -40 11 -19 -2 -68 -25 -93 -13 -14
-14 -22 -5 -32 7 -9 12 -66 14 -143 l4 -129 -162 0 c-162 0 -162 0 -162 23 0
20 1 21 12 5 11 -15 16 -12 39 33 15 27 25 41 22 32 -7 -25 1 -22 15 3 8 15 8
19 0 15 -6 -4 -11 -2 -11 4 0 8 -6 8 -20 0 -11 -6 -20 -7 -20 -3 0 4 -9 -5
-19 -21 l-20 -30 -6 26 c-4 15 -2 36 5 47 6 13 7 21 1 21 -5 0 -8 9 -5 20 2
11 6 29 8 40 3 11 16 34 29 52 33 45 40 58 30 58 -4 0 -21 -20 -36 -45 -16
-25 -31 -45 -33 -45 -3 0 -2 16 2 35 8 43 -2 77 -16 55 -7 -11 -10 -1 -10 31
0 35 -4 46 -16 46 -11 0 -14 -7 -9 -26 4 -19 3 -22 -4 -11 -12 18 -6 109 9
124 19 19 10 29 -11 10 -12 -10 -24 -19 -28 -19 -3 0 -7 -9 -8 -20 0 -11 -2
-24 -3 -30 -1 -5 -1 -21 0 -34 1 -14 -2 -21 -9 -17 -6 4 -8 -3 -5 -18 2 -14
-1 -28 -6 -31 -8 -5 -7 -11 1 -21 6 -7 16 -11 22 -7 6 4 7 1 3 -8 -4 -8 0 -5
8 5 9 11 19 17 22 13 4 -3 -7 -22 -25 -42 -17 -20 -31 -31 -31 -26 0 5 5 13
10 16 6 4 8 11 4 16 -4 7 -10 7 -18 0 -8 -7 -12 3 -14 40 -1 29 2 49 9 49 5 0
7 5 4 10 -4 6 -1 18 7 27 9 12 9 15 1 9 -7 -4 -13 -2 -13 3 0 6 5 11 11 11 5
0 7 5 4 10 -4 6 -11 8 -16 5 -5 -4 -9 1 -9 9 0 18 20 32 20 14 1 -7 8 3 18 23
9 20 23 34 29 32 7 -3 16 3 19 11 4 9 16 21 28 28 17 9 19 8 9 -3 -20 -20 -15
-31 8 -19 12 7 18 18 15 26 -3 7 -2 13 2 12 16 -3 41 15 35 26 -3 6 6 -1 22
-16 15 -16 35 -28 44 -29 11 0 12 -2 3 -6 -7 -3 -20 1 -29 9 -14 11 -16 11
-11 -2 3 -10 21 -16 50 -18 40 -3 50 1 72 25 15 15 29 38 32 51 7 27 6 27 52
3z m-323 -341 c4 -6 -1 -36 -11 -68 -10 -33 -16 -82 -15 -117 1 -44 -4 -76
-23 -123 -34 -87 -41 -139 -22 -182 8 -20 14 -62 13 -95 0 -33 -2 -52 -5 -42
-2 9 -7 17 -12 17 -4 0 -6 15 -3 34 3 21 0 37 -8 42 -9 5 -11 1 -7 -14 4 -14
2 -20 -5 -15 -7 4 -8 0 -4 -11 4 -10 7 -27 7 -37 0 -11 4 -18 8 -15 4 2 9 -5
9 -16 2 -18 0 -19 -12 -7 -7 8 -18 30 -23 49 -5 19 -14 34 -21 32 -13 -2 -13
0 -5 22 3 9 9 14 13 12 4 -3 6 11 6 29 -1 19 2 32 7 29 5 -3 6 -15 3 -27 -5
-19 -5 -20 5 -5 8 13 8 23 0 38 -6 12 -8 30 -4 42 3 12 2 18 -3 15 -6 -4 -10
14 -9 42 1 27 4 47 9 44 4 -2 4 -9 1 -15 -4 -7 -2 -8 5 -4 6 4 9 11 6 16 -3 4
2 24 10 43 8 19 11 37 8 40 -3 4 0 14 8 24 12 14 12 16 0 8 -11 -6 -13 -4 -6
11 4 10 7 28 7 39 -1 10 8 34 19 52 11 18 18 37 15 42 -4 5 -2 12 4 16 5 3 10
14 10 23 -1 9 -10 -1 -22 -23 -12 -22 -23 -35 -25 -28 -4 12 47 92 59 93 4 0
10 -5 13 -10z m462 -47 c3 -7 -3 -23 -13 -34 -12 -13 -19 -41 -22 -82 -4 -60
-15 -87 -33 -87 -9 0 -11 222 -2 246 4 11 11 10 35 -7 16 -12 32 -28 35 -36z
m-541 -53 c5 1 15 7 23 13 12 10 12 9 2 -11 -7 -12 -16 -20 -21 -17 -5 3 -12
0 -16 -6 -4 -8 -3 -9 4 -5 16 10 14 -5 -3 -28 -8 -10 -12 -23 -9 -27 3 -5 0
-9 -7 -9 -8 0 -7 -6 4 -17 13 -16 13 -20 1 -31 -20 -18 -18 -38 3 -21 15 13
15 12 5 -6 -26 -47 -29 -45 -28 23 1 38 6 75 13 83 7 8 10 30 8 49 -3 21 -1
30 4 22 4 -8 12 -13 17 -12z m171 -222 c1 -15 -2 -28 -8 -28 -5 0 -9 6 -8 13
4 35 -1 40 -21 22 -11 -10 -23 -15 -28 -11 -9 10 25 35 46 33 11 0 18 -11 19
-29z m48 13 c-4 -12 -1 -11 9 2 21 27 49 18 50 -15 1 -21 -3 -28 -17 -28 -15
0 -16 3 -7 20 12 22 7 25 -20 10 -15 -8 -21 -6 -29 8 -8 14 -6 19 5 19 9 0 13
-6 9 -16z m115 0 c-17 -14 -27 -16 -32 -8 -10 16 -3 22 29 25 l28 2 -25 -19z
m63 12 c11 -10 -13 -32 -29 -26 -11 4 -12 9 -3 19 13 15 22 18 32 7z m96 -15
c11 -11 12 -10 6 2 -6 12 -5 12 5 3 20 -18 2 -70 -32 -94 l-30 -22 6 24 6 24
-11 -22 c-7 -13 -15 -23 -20 -23 -4 0 -5 10 -3 23 l5 22 -10 -22 c-6 -13 -15
-23 -21 -23 -6 0 -4 12 5 30 21 42 11 38 -20 -7 -28 -41 -33 -38 -10 6 13 25
89 91 105 91 3 0 12 -6 19 -12z m-349 -49 c0 -9 27 -6 36 4 4 4 16 7 27 7 16
0 13 -5 -14 -23 -19 -13 -33 -31 -33 -40 1 -9 -3 -14 -9 -10 -6 4 -7 1 -2 -7
5 -9 4 -11 -3 -6 -8 4 -10 2 -6 -7 3 -8 1 -18 -5 -22 -6 -3 -11 0 -11 7 -1 7
-10 -4 -21 -24 -11 -21 -22 -38 -25 -38 -10 0 9 45 28 67 18 20 17 50 -1 38
-7 -4 -8 32 -3 57 2 9 42 6 42 -3z m214 -13 c-8 -14 -17 -45 -19 -71 -2 -39
-1 -44 12 -34 7 7 12 18 9 26 -3 7 1 13 9 13 9 0 12 -6 8 -17 -5 -14 -1 -13
16 5 12 12 25 22 28 22 4 0 -4 -11 -17 -25 -12 -13 -27 -23 -33 -22 -5 1 -12
-4 -14 -10 -6 -16 23 -17 32 -3 5 8 11 8 20 0 9 -7 16 -6 25 5 9 11 9 15 1 15
-9 0 -9 5 -1 21 12 22 25 18 26 -9 0 -9 4 -55 8 -101 5 -52 3 -150 -5 -261
-11 -159 -11 -190 5 -296 13 -91 15 -136 8 -190 -6 -39 -7 -83 -5 -98 5 -24 3
-26 -31 -26 -33 0 -36 2 -30 24 3 13 1 27 -5 30 -6 4 -11 1 -12 -6 -1 -26 -8
-50 -15 -56 -6 -7 1 48 12 86 4 16 1 9 -26 -50 -9 -20 -10 -19 -4 7 4 17 8 75
9 130 2 55 6 109 10 120 7 20 7 20 -10 0 -9 -11 -14 -30 -12 -42 2 -13 0 -23
-4 -23 -15 0 -10 43 11 88 11 23 15 40 9 36 -7 -4 -9 1 -4 15 4 13 1 28 -6 37
-9 11 -9 20 0 40 17 37 13 53 -6 20 l-15 -29 -14 31 c-7 18 -11 48 -8 69 5 30
3 35 -6 23 -9 -12 -10 -7 -5 20 4 23 3 30 -3 22 -14 -20 -25 33 -12 58 5 10
10 27 9 37 0 16 -1 16 -9 -2 -6 -13 -8 0 -5 40 3 45 2 56 -6 42 -6 -10 -8 -26
-4 -35 5 -14 4 -15 -6 -4 -10 9 -10 19 -1 45 16 45 15 57 -4 27 -15 -25 -15
-25 -9 10 5 26 4 31 -4 20 -8 -11 -10 -3 -7 33 4 44 3 46 -15 37 -21 -12 -26
-1 -8 17 6 6 9 17 6 25 -3 8 -9 4 -16 -12 -10 -23 -11 -21 -6 15 2 22 5 56 5
76 0 33 3 37 30 41 17 3 30 0 30 -6 0 -7 3 -7 8 0 8 13 34 21 70 23 22 1 22 0
6 -23z m-160 -87 c-1 -44 -7 -86 -13 -92 -6 -6 -11 -7 -11 -3 0 5 -6 3 -14 -3
-10 -9 -15 -8 -19 3 -4 9 -1 18 5 22 7 5 8 2 4 -7 -4 -8 2 -3 13 11 26 32 27
49 1 25 -11 -10 -20 -14 -20 -9 -1 5 -14 -16 -30 -47 -22 -43 -27 -63 -21 -85
6 -24 8 -25 14 -10 4 10 4 23 1 29 -3 7 2 3 10 -7 9 -11 16 -25 16 -30 0 -6
-4 -5 -9 2 -6 11 -10 10 -15 -4 -13 -34 9 -33 32 2 12 18 18 34 12 34 -11 0
30 70 41 70 15 0 -10 -70 -40 -113 -32 -48 -38 -63 -20 -51 8 5 8 1 0 -14 -6
-11 -11 -23 -11 -27 0 -3 5 -3 11 1 7 4 7 -1 -1 -16 -6 -12 -9 -24 -7 -27 9
-8 27 35 21 50 -3 8 0 18 6 22 9 6 9 9 0 15 -19 12 32 84 56 80 4 -1 11 4 16
12 8 10 9 10 5 -2 -2 -8 -9 -14 -14 -13 -6 1 -16 -10 -22 -24 -11 -23 -10 -25
3 -13 20 16 21 0 1 -26 -19 -25 -19 -40 0 -24 8 7 15 9 15 4 0 -5 5 -1 11 9
12 20 29 23 29 3 0 -15 -27 -29 -40 -21 -4 3 -10 -2 -14 -10 -3 -8 -1 -15 4
-15 5 0 9 -10 7 -22 -1 -14 3 -22 11 -20 9 2 9 -5 -3 -27 -17 -35 -18 -41 -6
-41 5 0 12 8 14 18 4 14 5 14 6 -3 0 -11 -13 -40 -30 -65 -16 -24 -28 -53 -25
-62 2 -11 0 -15 -6 -12 -6 4 -9 1 -7 -5 6 -18 24 -9 23 11 0 9 3 15 7 12 7 -4
20 24 24 51 5 27 7 28 15 10 8 -18 9 -18 10 5 1 14 1 35 1 47 -1 11 3 24 9 28
9 6 9 9 0 15 -9 6 -10 12 -1 26 9 17 11 17 12 -6 1 -14 0 -29 -1 -35 -5 -20
-9 -91 -9 -149 0 -40 -5 -64 -16 -76 -9 -10 -15 -22 -13 -27 2 -5 -8 -33 -21
-61 -17 -35 -27 -48 -33 -40 -6 10 -8 9 -8 -2 0 -8 4 -21 8 -27 5 -9 20 11 41
56 19 38 31 73 28 78 -3 5 0 10 8 10 20 0 19 -24 -4 -55 -24 -35 -57 -100 -65
-132 -4 -14 9 7 29 45 53 101 57 102 53 13 -2 -43 1 -79 6 -81 5 -2 4 -13 -3
-24 -14 -27 -15 -55 -1 -33 5 8 10 11 10 5 0 -19 -16 -34 -28 -26 -10 6 -10
15 -2 35 16 44 10 45 -10 1 -25 -54 -25 -28 0 31 11 26 19 49 17 51 -5 4 -47
-91 -47 -106 0 -11 -11 -14 -27 -9 -5 2 -7 7 -5 11 1 4 -3 17 -9 29 -8 15 -8
18 0 14 14 -9 14 9 1 35 -7 13 -7 19 0 19 5 0 10 5 10 11 0 5 -4 7 -10 4 -6
-4 -7 1 -3 11 4 12 3 15 -5 10 -18 -11 -16 -4 29 90 22 47 42 100 44 117 1 18
6 41 10 52 4 11 -3 5 -14 -12 -12 -18 -30 -48 -42 -65 -11 -18 -18 -25 -15
-15 3 10 -1 28 -9 40 l-15 21 0 -22 c0 -12 4 -22 8 -22 5 0 8 -15 7 -34 0 -19
3 -32 7 -30 4 3 8 9 8 14 0 13 42 82 46 77 3 -2 -14 -40 -36 -83 -30 -61 -40
-73 -40 -52 0 14 -5 48 -11 75 -10 41 -8 55 9 100 11 29 16 50 11 47 -5 -3 -7
11 -4 31 2 21 0 33 -5 30 -6 -4 -10 -2 -10 4 0 5 5 13 10 16 6 3 10 11 10 18
0 18 -27 -15 -35 -43 -4 -16 -3 -20 3 -12 6 9 9 3 9 -18 0 -20 -3 -26 -9 -18
-11 18 -10 0 2 -22 7 -12 7 -26 0 -42 -10 -21 -10 -21 -5 5 4 18 2 26 -4 22
-7 -4 -9 6 -7 27 2 18 -1 36 -7 40 -9 5 -9 10 1 20 13 13 17 32 4 24 -4 -2 -8
4 -8 14 0 10 4 16 9 13 5 -3 7 0 5 8 -3 8 -11 13 -18 11 -9 -2 -10 4 -5 20 4
13 7 31 8 40 1 9 5 14 9 12 4 -3 8 -1 8 5 0 5 -6 14 -14 18 -8 4 -15 11 -14
16 0 4 -3 24 -7 45 -5 30 -1 47 19 83 27 47 32 64 16 54 -6 -3 -7 1 -3 10 4
11 8 13 13 5 7 -11 44 33 46 55 2 17 16 45 23 45 3 0 5 -36 5 -81z m-35 -106
c10 8 8 0 -6 -23 -11 -19 -18 -42 -16 -50 3 -8 -2 -5 -12 8 -9 12 -21 20 -27
16 -5 -3 -2 8 7 26 12 23 20 29 28 21 7 -7 15 -7 26 2z m101 -189 c0 -8 -4
-12 -10 -9 -5 3 -10 1 -10 -4 0 -17 -17 -13 -24 5 -3 8 -2 12 3 9 5 -3 12 -1
16 5 9 15 25 12 25 -6z m14 -706 c-3 -5 -11 -4 -18 1 -7 6 -17 7 -22 3 -5 -4
0 3 10 16 20 23 7 31 -16 10 -61 -58 -155 -118 -184 -118 -4 0 7 13 24 30 18
17 39 30 47 30 9 0 13 5 10 10 -3 6 0 10 7 11 7 0 4 5 -7 10 -17 8 -16 8 7 4
20 -4 31 1 45 18 10 12 26 21 35 19 10 -2 25 1 35 7 15 8 19 5 25 -16 4 -15 5
-30 2 -35z m127 1 c-13 -5 -21 -15 -18 -22 3 -7 -1 -21 -9 -32 -22 -30 -16
-40 7 -11 11 14 28 26 37 27 11 0 12 2 5 6 -18 7 -16 23 2 23 17 0 34 -58 37
-125 2 -36 -2 -50 -17 -61 -22 -16 -51 -18 -60 -4 -3 6 3 10 15 10 12 0 18 5
15 10 -3 6 -17 10 -30 10 -13 0 -27 5 -30 10 -4 6 -11 8 -16 5 -12 -8 -11 2 2
27 10 19 18 53 21 88 1 22 28 50 47 49 10 0 7 -4 -8 -10z m-334 -45 c-20 -21
-34 -31 -40 -25 -12 12 41 71 58 65 8 -3 1 -17 -18 -40z m191 36 c1 -2 7 -3
12 -4 27 -3 4 -56 -24 -56 -13 0 -49 -9 -81 -20 -77 -26 -155 -26 -155 1 0 5
9 4 19 -3 15 -9 28 -8 61 5 23 9 47 14 55 11 7 -3 26 1 43 10 16 8 39 12 50 9
13 -3 22 -1 22 6 0 7 -5 9 -12 5 -7 -4 -8 -3 -4 5 4 6 12 8 18 5 7 -5 8 -2 4
5 -5 7 -14 10 -21 7 -8 -3 -16 -2 -18 2 -2 4 -3 2 -2 -3 2 -6 -15 -18 -36 -27
-46 -19 -49 -14 -12 24 19 20 34 27 52 24 15 -2 27 -5 29 -6z"/>
<path d="M1314 2129 c-8 -13 12 -42 30 -45 9 -1 14 1 11 6 -3 5 1 11 7 13 8 3
6 6 -4 6 -10 1 -18 -5 -18 -11 0 -9 -4 -8 -10 2 -16 25 -12 28 27 19 36 -8 61
-4 32 5 -33 10 -70 13 -75 5z"/>
<path d="M1442 1959 c-18 -20 -48 -44 -67 -54 -21 -9 -33 -21 -29 -27 5 -8 -1
-9 -17 -5 -13 4 -27 7 -31 7 -4 0 -5 24 -3 53 4 38 2 45 -4 27 -7 -19 -9 -20
-10 -7 -1 17 -4 16 -32 -7 -17 -14 -34 -24 -37 -22 -4 2 -8 -10 -9 -27 l-2
-32 18 22 c10 12 22 19 26 15 5 -4 5 -2 2 4 -4 6 0 20 8 30 9 10 15 15 14 9
-1 -5 1 -17 4 -25 3 -8 7 -24 9 -34 2 -10 12 -24 23 -30 11 -6 22 -14 25 -18
7 -9 50 19 50 32 0 5 23 31 51 58 29 27 50 53 48 58 -2 5 -19 -7 -37 -27z"/>
<path d="M1352 1777 c-7 -15 -15 -39 -18 -52 -3 -14 -10 -23 -14 -20 -10 6
-45 -44 -45 -65 -1 -8 -5 -14 -11 -13 -5 1 -9 -22 -9 -53 1 -30 -3 -54 -7 -54
-4 0 -8 -5 -8 -11 0 -8 4 -8 14 1 8 6 13 17 11 23 -3 7 16 48 40 92 43 76 57
88 34 28 -6 -15 -12 -42 -15 -60 -3 -27 -1 -31 16 -28 13 3 17 -1 13 -12 -4
-9 -8 -11 -12 -4 -5 8 -13 7 -26 -3 -17 -12 -16 -13 9 -12 29 2 47 21 39 42
-2 7 2 25 11 42 16 32 18 70 3 89 -5 7 -6 16 -4 20 3 5 2 24 -2 43 l-8 35 -11
-28z"/>
<path d="M1292 1565 c-13 -13 -20 -29 -17 -35 7 -12 26 9 38 43 8 22 7 22 -21
-8z"/>
<path d="M1223 1296 c-4 -5 -1 -6 7 -1 10 6 12 4 7 -7 -3 -9 -3 -19 0 -22 7
-6 43 22 43 34 0 10 -51 7 -57 -4z"/>
<path d="M1364 1268 c-20 -39 -17 -45 11 -18 14 13 25 20 25 16 0 -5 7 -3 15
4 19 16 11 29 -16 27 -11 -1 -27 -14 -35 -29z"/>
<path d="M1325 426 c-29 -53 -34 -69 -25 -83 9 -15 10 -14 4 7 -3 14 -3 22 1
18 8 -8 69 111 61 119 -2 3 -21 -25 -41 -61z"/>
<path d="M1491 111 c-23 -32 -28 -52 -9 -33 7 7 26 12 42 12 32 0 27 14 -9 24
-12 3 -8 4 8 2 17 -2 26 1 24 8 -7 22 -35 16 -56 -13z"/>
</g>
</svg>
